<?xml version="1.0" encoding="UTF-8"?>
<!-- Created with Inkscape (http://www.inkscape.org/) -->
<svg id="svg8" width="1825.9pt" height="750pt" version="1.1" viewBox="0 0 1825.9 750" xmlns="http://www.w3.org/2000/svg" xmlns:cc="http://creativecommons.org/ns#" xmlns:dc="http://purl.org/dc/elements/1.1/" xmlns:rdf="http://www.w3.org/1999/02/22-rdf-syntax-ns#">
 <metadata id="metadata5">
  <rdf:RDF>
   <cc:Work rdf:about="">
    <dc:format>image/svg+xml</dc:format>
    <dc:type rdf:resource="http://purl.org/dc/dcmitype/StillImage"/>
    <dc:title/>
   </cc:Work>
  </rdf:RDF>
 </metadata>
 <g id="layer1" transform="translate(-36.501 465.33)">
  <g id="g2044">
   <path id="path230" d="m888.26-197.25s319.47-256.47 598.45 22.496c0 0 152.98 135 31.484 400.46 0 0 296.99-180 71.996-517.45 0 0 274.48 283.46 40.504 575.94 0 0 350.97-152.99 188.99-521.95 0 0 44.986 179.99-26.992 292.48 0 0 40.495-310.47-297-463.46 0 0-346.46-193.49-724.43 134.98 0 0 490.46-346.48 769.43 40.493 0 0-350.97-274.47-652.44 35.994" fill="#e21d3b"/>
   <path id="path232" d="m92.654 4.3505h0.61339c10.174-15.727 29.311-23.146 47.817-23.146 47.208 0 79.911 39.491 79.911 84.847 0 45.665-32.399 83.903-79.294 83.903-18.201 0-37.016-6.4651-49.047-20.349v94.09h-56.153v-237.24h56.153v17.897zm-1.8562 61.392c0 20.059 13.261 35.477 36.094 35.477 22.833 0 36.094-15.418 36.094-35.477 0-19.432-13.261-35.795-36.094-35.795-22.833 0-36.094 16.363-36.094 35.795"/>
   <path id="path234" d="m304.91-111.34v117.85h0.61339c12.959-17.28 28.699-25.307 50.6-25.307 40.108 0 59.54 26.534 59.54 66.65v96.869h-56.148v-81.142c0-18.505-2.7791-37.647-25.293-37.647-22.22 0-29.312 19.142-29.312 37.647v81.142h-56.148v-256.07h56.148"/>
   <path id="path236" d="m631.62 65.742c0 53.683-44.43 84.211-95.334 84.211-50.591 0-95.334-30.219-95.334-84.211 0-53.992 44.425-84.538 95.334-84.538 50.904 0 95.334 30.546 95.334 84.538zm-131.43 0c0 20.059 13.266 35.477 36.099 35.477 22.828 0 36.099-15.418 36.099-35.477 0-19.432-13.27-35.795-36.099-35.795-22.832 0-36.099 16.363-36.099 35.795"/>
   <path id="path238" d="m819.51 74.986h-118.16c0 22.836 12.031 35.177 35.173 35.177 12.031 0 20.671-4.0135 26.841-14.492h53.987c-8.9485 37.329-44.425 54.282-80.519 54.282-52.452 0-91.63-29.611-91.63-84.211 0-52.756 36.094-84.538 87.611-84.538 54.923 0 86.7 33.942 86.7 87.934zm-52.14-32.389c-2.7833-15.119-16.663-24.98-31.78-24.98-16.349 0-29.929 8.6258-33.316 24.98h65.096"/>
   <path id="path240" d="m901.27 6.8107h0.61339c12.952-19.123 28.676-25.606 50.592-25.606 42.586 0 59.546 26.842 59.546 65.714v97.805h-56.152v-77.128c0-15.119 2.464-41.661-25.31-41.661-22.828 0-29.29 16.981-29.29 36.72v82.069h-56.152v-158.27h56.152v20.357"/>
   <path id="path242" d="m1108.6-74.331c0 17.28-14.207 31.473-31.474 31.473-17.286 0-31.475-14.193-31.475-31.473 0-17.27 14.189-31.463 31.475-31.463 17.267 0 31.474 14.193 31.474 31.463zm-3.422 219.05h-56.133v-158.27h56.133v158.27"/>
   <path id="path244" d="m1133.9-13.547h71.28l28.388 32.698 28.377-32.698h72.498l-65.403 72.497 78.979 85.773h-73.726l-40.726-46.901-40.737 46.901h-73.726l78.979-85.773-64.185-72.497"/>
   <path id="path248" d="m717.04 258.23h-18.801v-37.501h-6.0978v-15.5h6.0978v-15.909h18.801v15.909h10.642v15.5h-10.642v37.501"/>
   <path id="path250" d="m788.11 234.87h-39.563c0 7.6461 4.0271 11.777 11.777 11.777 4.0271 0 6.9243-1.343 8.9848-4.8494h18.084c-3.0006 12.495-14.882 18.179-26.963 18.179-17.567 0-30.687-9.9157-30.687-28.194 0-17.68 12.086-28.331 29.347-28.331 18.379 0 29.021 11.377 29.021 29.447zm-17.457-10.851c-0.93011-5.049-5.5796-8.3726-10.642-8.3726-5.4794 0-10.025 2.9058-11.16 8.3726h21.802"/>
   <path id="path252" d="m834.91 222.48c-2.7877-2.0711-6.093-3.7136-9.7058-3.7136-7.229 0-12.913 5.5754-12.913 12.912 0 7.6363 5.4714 13.003 13.226 13.003 3.2997 0 6.9139-1.335 9.3927-3.614v15.918c-4.1225 2.0711-8.6664 2.9972-13.221 2.9972-15.7 0-28.826-11.659-28.826-27.695 0-17.035 13.017-28.83 29.657-28.83 4.331 0 8.667 1.0444 12.389 3.1139v15.909"/>
   <path id="path254" d="m865.39 172.46v39.472h0.2225c4.3238-5.7749 9.5865-8.4806 16.923-8.4806 13.436 0 19.963 8.898 19.963 22.328v32.443h-18.819v-27.186c0-6.1844-0.92008-12.595-8.48-12.595-7.4387 0-9.8098 6.4101-9.8098 12.595v27.186h-18.791v-85.763h18.791"/>
   <path id="path256" d="m933.68 212.04h0.2225c4.323-6.4007 9.6048-8.5802 16.941-8.5802 14.255 0 19.936 8.9984 19.936 22.001v32.77h-18.81v-25.833c0-5.0667 0.8359-13.947-8.4616-13.947-7.6431 0-9.8281 5.6843-9.8281 12.304v27.477h-18.792v-53.001h18.792v6.8098"/>
   <path id="path258" d="m1043.1 231.79c0 17.97-14.876 28.194-31.92 28.194-16.95 0-31.921-10.125-31.921-28.194 0-18.097 14.858-28.331 31.921-28.331 17.044 0 31.92 10.233 31.92 28.331zm-44.027 0c0 6.7014 4.4535 11.867 12.106 11.867 7.6345 0 12.088-5.1657 12.088-11.867 0-6.5202-4.4533-11.996-12.088-11.996-7.653 0-12.106 5.4756-12.106 11.996"/>
   <path id="path260" d="m1070.4 258.23h-18.791v-85.763h18.791v85.763"/>
   <path id="path262" d="m1142.7 231.79c0 17.97-14.878 28.194-31.912 28.194-16.96 0-31.94-10.125-31.94-28.194 0-18.097 14.887-28.331 31.94-28.331 17.034 0 31.912 10.233 31.912 28.331zm-44.01 0c0 6.7014 4.4449 11.867 12.098 11.867 7.6247 0 12.078-5.1657 12.078-11.867 0-6.5202-4.4535-11.996-12.078-11.996-7.653 0-12.098 5.4756-12.098 11.996"/>
   <path id="path264" d="m1209.3 253.05c0 22.528-11.168 31.618-30.685 31.618-12.199 0-28.518-6.3023-30.164-20.24h21.079c0.5112 1.8602 1.8502 3.1872 3.5054 4.0317l5.365 1.2348c10.126 0 12.088-6.6194 12.088-15.191v-2.4878c-4.8438 4.858-9.8185 7.246-16.83 7.246-15.49 0-26.137-11.786-26.137-27.078 0-15.491 10.954-28.729 27.17-28.729 6.1933 0 11.874 2.0699 15.602 7.3368h0.2005v-5.5664h18.811v47.826zm-42.363-21.693c0 6.719 4.4436 11.886 12.096 11.886 7.6431 0 12.088-5.1667 12.088-11.886 0-6.5025-4.4449-11.977-12.088-11.977-7.6528 0-12.096 5.4744-12.096 11.977"/>
   <path id="path266" d="m1241.1 184.87c0 5.7749-4.7508 10.533-10.544 10.533s-10.535-4.758-10.535-10.533c0-5.7845 4.7422-10.542 10.535-10.542s10.544 4.758 10.544 10.542zm-1.1346 73.359h-18.819v-53.001h18.819v53.001"/>
   <path id="path268" d="m1306.8 234.87h-39.583c0 7.6461 4.0364 11.777 11.791 11.777 4.0265 0 6.8992-1.343 8.9914-4.8494h18.067c-2.9755 12.495-14.859 18.179-26.947 18.179-17.574 0-30.703-9.9157-30.703-28.194 0-17.68 12.108-28.331 29.336-28.331 18.401 0 29.048 11.377 29.048 29.447zm-17.463-10.851c-0.9301-5.049-5.5692-8.3726-10.655-8.3726-5.4676 0-10.006 2.9058-11.14 8.3726h21.795"/>
   <path id="path270" d="m1350.4 218.86c-2.9019-1.5615-6.9273-2.5971-10.126-2.5971-2.1862 0-5.8958 0.93612-5.8958 3.6322 0 3.6138 5.8958 4.1228 8.47 4.6311 8.7872 1.78 15.389 5.9028 15.389 15.709 0 13.956-12.692 19.741-24.983 19.741-7.56 0-14.99-2.1705-21.396-6.1026l6.8246-13.112c3.8221 2.6789 10.22 5.3754 14.869 5.3754 2.3796 0 5.8946-1.1346 5.8946-4.0412 0-4.122-5.8946-4.3406-11.771-5.8839-5.8957-1.5515-11.782-4.4302-11.782-13.947 0-13.021 11.782-18.814 23.349-18.814 5.9975 0 11.975 0.93412 17.453 3.4224l-6.2949 11.986"/>
  </g>
 </g>
</svg>
